STARTFONT 2.1
FONT -FontForge-Untitled1-Regular-R-Normal--8-80-75-75-C-80-ISO8859-1
SIZE 8 75 75
FONTBOUNDINGBOX 7 8 1 -1
COMMENT "Generated by fontforge, http://fontforge.sourceforge.net"
COMMENT "Copyright (c) 2025, Taylor Faragher"
STARTPROPERTIES 29
FOUNDRY "FontForge"
FAMILY_NAME "Untitled1"
WEIGHT_NAME "Regular"
SLANT "R"
SETWIDTH_NAME "Normal"
ADD_STYLE_NAME ""
PIXEL_SIZE 8
POINT_SIZE 80
RESOLUTION_X 75
RESOLUTION_Y 75
SPACING "C"
AVERAGE_WIDTH 80
CHARSET_REGISTRY "ISO8859"
CHARSET_ENCODING "1"
FONTNAME_REGISTRY ""
CHARSET_COLLECTIONS "ISOLatin1Encoding"
FONT_NAME "Untitled1"
FACE_NAME "Untitled1"
COPYRIGHT "Copyright (c) 2025, Taylor Faragher"
FONT_VERSION "001.000"
FONT_ASCENT 6
FONT_DESCENT 2
UNDERLINE_POSITION -1
UNDERLINE_THICKNESS 1
CAP_HEIGHT 6
RAW_ASCENT 833
RAW_DESCENT 166
FIGURE_WIDTH -1
AVG_UPPERCASE_WIDTH 80
ENDPROPERTIES
CHARS 27
STARTCHAR A
ENCODING 65
SWIDTH 1000 0
DWIDTH 8 0
BBX 5 7 1 0
BITMAP
F8
C8
C8
F8
88
88
88
ENDCHAR
STARTCHAR B
ENCODING 66
SWIDTH 1000 0
DWIDTH 8 0
BBX 4 7 1 0
BITMAP
F0
F0
D0
E0
90
F0
F0
ENDCHAR
STARTCHAR C
ENCODING 67
SWIDTH 1000 0
DWIDTH 8 0
BBX 4 7 1 0
BITMAP
F0
C0
80
80
80
F0
F0
ENDCHAR
STARTCHAR D
ENCODING 68
SWIDTH 1000 0
DWIDTH 8 0
BBX 5 7 1 0
BITMAP
F0
C8
88
88
88
F0
F0
ENDCHAR
STARTCHAR E
ENCODING 69
SWIDTH 1000 0
DWIDTH 8 0
BBX 4 7 3 0
BITMAP
F0
C0
C0
F0
80
F0
F0
ENDCHAR
STARTCHAR F
ENCODING 70
SWIDTH 1000 0
DWIDTH 8 0
BBX 4 7 3 0
BITMAP
F0
C0
C0
F0
80
80
80
ENDCHAR
STARTCHAR G
ENCODING 71
SWIDTH 1000 0
DWIDTH 8 0
BBX 5 8 1 -1
BITMAP
70
88
88
80
98
88
88
70
ENDCHAR
STARTCHAR H
ENCODING 72
SWIDTH 1000 0
DWIDTH 8 0
BBX 5 7 1 0
BITMAP
88
88
C8
F8
88
88
88
ENDCHAR
STARTCHAR I
ENCODING 73
SWIDTH 1000 0
DWIDTH 8 0
BBX 1 7 4 0
BITMAP
80
80
80
80
80
80
80
ENDCHAR
STARTCHAR J
ENCODING 74
SWIDTH 1000 0
DWIDTH 8 0
BBX 4 7 1 0
BITMAP
10
10
10
10
90
F0
F0
ENDCHAR
STARTCHAR K
ENCODING 75
SWIDTH 1000 0
DWIDTH 8 0
BBX 4 7 3 0
BITMAP
90
90
D0
E0
90
90
90
ENDCHAR
STARTCHAR L
ENCODING 76
SWIDTH 1000 0
DWIDTH 8 0
BBX 4 7 3 0
BITMAP
80
80
80
80
80
F0
F0
ENDCHAR
STARTCHAR M
ENCODING 77
SWIDTH 1000 0
DWIDTH 8 0
BBX 7 7 1 0
BITMAP
86
CE
EE
96
86
86
80
ENDCHAR
STARTCHAR N
ENCODING 78
SWIDTH 1000 0
DWIDTH 8 0
BBX 7 7 1 0
BITMAP
86
C6
E6
96
8E
86
80
ENDCHAR
STARTCHAR O
ENCODING 79
SWIDTH 1000 0
DWIDTH 8 0
BBX 5 7 1 0
BITMAP
F8
C8
88
88
88
F8
F8
ENDCHAR
STARTCHAR P
ENCODING 80
SWIDTH 1000 0
DWIDTH 8 0
BBX 4 7 3 0
BITMAP
F0
F0
F0
F0
80
80
80
ENDCHAR
STARTCHAR Q
ENCODING 81
SWIDTH 1000 0
DWIDTH 8 0
BBX 5 7 1 0
BITMAP
F8
C8
88
88
90
E8
C8
ENDCHAR
STARTCHAR R
ENCODING 82
SWIDTH 1000 0
DWIDTH 8 0
BBX 5 7 1 0
BITMAP
F8
C8
C8
F8
90
88
88
ENDCHAR
STARTCHAR S
ENCODING 83
SWIDTH 1000 0
DWIDTH 8 0
BBX 5 7 1 0
BITMAP
F8
C0
C0
F8
08
F8
F8
ENDCHAR
STARTCHAR T
ENCODING 84
SWIDTH 1000 0
DWIDTH 8 0
BBX 7 7 1 0
BITMAP
FE
30
10
10
10
10
10
ENDCHAR
STARTCHAR U
ENCODING 85
SWIDTH 1000 0
DWIDTH 8 0
BBX 5 7 1 0
BITMAP
88
88
88
88
88
F8
F8
ENDCHAR
STARTCHAR V
ENCODING 86
SWIDTH 1000 0
DWIDTH 8 0
BBX 7 7 1 0
BITMAP
86
86
86
86
68
10
10
ENDCHAR
STARTCHAR W
ENCODING 87
SWIDTH 1000 0
DWIDTH 8 0
BBX 7 7 1 0
BITMAP
96
96
96
96
96
FE
FC
ENDCHAR
STARTCHAR X
ENCODING 88
SWIDTH 1000 0
DWIDTH 8 0
BBX 7 7 1 0
BITMAP
86
48
28
10
68
84
80
ENDCHAR
STARTCHAR Y
ENCODING 89
SWIDTH 1000 0
DWIDTH 8 0
BBX 7 7 1 0
BITMAP
86
48
28
10
10
10
10
ENDCHAR
STARTCHAR Z
ENCODING 90
SWIDTH 1000 0
DWIDTH 8 0
BBX 5 7 1 0
BITMAP
F8
08
08
10
60
F8
F8
ENDCHAR
STARTCHAR periodcentered
ENCODING 183
SWIDTH 1000 0
DWIDTH 8 0
BBX 1 1 4 1
BITMAP
80
ENDCHAR
ENDFONT
