STARTFONT 2.1
FONT -FontForge-Untitled1-Regular-R-Normal--7-70-75-75-C-80-ISO8859-1
SIZE 7 75 75
FONTBOUNDINGBOX 6 7 1 -1
COMMENT "Generated by fontforge, http://fontforge.sourceforge.net"
COMMENT "Copyright (c) 2025, Taylor Faragher"
STARTPROPERTIES 29
FOUNDRY "FontForge"
FAMILY_NAME "Untitled1"
WEIGHT_NAME "Regular"
SLANT "R"
SETWIDTH_NAME "Normal"
ADD_STYLE_NAME ""
PIXEL_SIZE 7
POINT_SIZE 70
RESOLUTION_X 75
RESOLUTION_Y 75
SPACING "C"
AVERAGE_WIDTH 80
CHARSET_REGISTRY "ISO8859"
CHARSET_ENCODING "1"
FONTNAME_REGISTRY ""
CHARSET_COLLECTIONS "ISOLatin1Encoding"
FONT_NAME "Untitled1"
FACE_NAME "Untitled1"
COPYRIGHT "Copyright (c) 2025, Taylor Faragher"
FONT_VERSION "001.000"
FONT_ASCENT 5
FONT_DESCENT 2
UNDERLINE_POSITION 0
UNDERLINE_THICKNESS 0
CAP_HEIGHT 5
RAW_ASCENT 857
RAW_DESCENT 142
FIGURE_WIDTH -1
AVG_UPPERCASE_WIDTH 80
ENDPROPERTIES
CHARS 27
STARTCHAR A
ENCODING 65
SWIDTH 1000 0
DWIDTH 8 0
BBX 5 6 1 0
BITMAP
F8
98
F8
D8
88
88
ENDCHAR
STARTCHAR B
ENCODING 66
SWIDTH 1000 0
DWIDTH 8 0
BBX 3 6 1 0
BITMAP
E0
A0
C0
C0
A0
E0
ENDCHAR
STARTCHAR C
ENCODING 67
SWIDTH 1000 0
DWIDTH 8 0
BBX 3 6 1 0
BITMAP
E0
80
80
80
80
E0
ENDCHAR
STARTCHAR D
ENCODING 68
SWIDTH 1000 0
DWIDTH 8 0
BBX 5 6 1 0
BITMAP
E0
88
88
88
80
E0
ENDCHAR
STARTCHAR E
ENCODING 69
SWIDTH 1000 0
DWIDTH 8 0
BBX 3 6 2 0
BITMAP
E0
80
E0
C0
80
E0
ENDCHAR
STARTCHAR F
ENCODING 70
SWIDTH 1000 0
DWIDTH 8 0
BBX 3 6 2 0
BITMAP
E0
80
E0
C0
80
80
ENDCHAR
STARTCHAR G
ENCODING 71
SWIDTH 1000 0
DWIDTH 8 0
BBX 5 7 1 -1
BITMAP
60
88
80
80
98
98
60
ENDCHAR
STARTCHAR H
ENCODING 72
SWIDTH 1000 0
DWIDTH 8 0
BBX 5 6 1 0
BITMAP
88
88
F8
D8
88
88
ENDCHAR
STARTCHAR I
ENCODING 73
SWIDTH 1000 0
DWIDTH 8 0
BBX 1 6 4 0
BITMAP
80
80
80
80
80
80
ENDCHAR
STARTCHAR J
ENCODING 74
SWIDTH 1000 0
DWIDTH 8 0
BBX 3 6 1 0
BITMAP
20
20
20
20
A0
E0
ENDCHAR
STARTCHAR K
ENCODING 75
SWIDTH 1000 0
DWIDTH 8 0
BBX 3 6 2 0
BITMAP
A0
A0
C0
C0
A0
A0
ENDCHAR
STARTCHAR L
ENCODING 76
SWIDTH 1000 0
DWIDTH 8 0
BBX 3 6 2 0
BITMAP
80
80
80
80
80
E0
ENDCHAR
STARTCHAR M
ENCODING 77
SWIDTH 1000 0
DWIDTH 8 0
BBX 6 6 1 0
BITMAP
84
CC
AC
84
84
84
ENDCHAR
STARTCHAR N
ENCODING 78
SWIDTH 1000 0
DWIDTH 8 0
BBX 6 6 1 0
BITMAP
84
C4
A4
8C
8C
84
ENDCHAR
STARTCHAR O
ENCODING 79
SWIDTH 1000 0
DWIDTH 8 0
BBX 5 6 1 0
BITMAP
F8
98
88
88
98
F8
ENDCHAR
STARTCHAR P
ENCODING 80
SWIDTH 1000 0
DWIDTH 8 0
BBX 3 6 2 0
BITMAP
E0
A0
E0
C0
80
80
ENDCHAR
STARTCHAR Q
ENCODING 81
SWIDTH 1000 0
DWIDTH 8 0
BBX 5 6 1 0
BITMAP
F8
98
88
80
A0
C8
ENDCHAR
STARTCHAR R
ENCODING 82
SWIDTH 1000 0
DWIDTH 8 0
BBX 5 6 1 0
BITMAP
F8
98
F8
F0
80
88
ENDCHAR
STARTCHAR S
ENCODING 83
SWIDTH 1000 0
DWIDTH 8 0
BBX 5 6 1 0
BITMAP
F8
80
F0
18
18
F8
ENDCHAR
STARTCHAR T
ENCODING 84
SWIDTH 1000 0
DWIDTH 8 0
BBX 6 6 1 0
BITMAP
FC
30
20
20
20
20
ENDCHAR
STARTCHAR U
ENCODING 85
SWIDTH 1000 0
DWIDTH 8 0
BBX 5 6 1 0
BITMAP
88
88
88
88
98
F8
ENDCHAR
STARTCHAR V
ENCODING 86
SWIDTH 1000 0
DWIDTH 8 0
BBX 6 6 1 0
BITMAP
84
84
84
00
40
20
ENDCHAR
STARTCHAR W
ENCODING 87
SWIDTH 1000 0
DWIDTH 8 0
BBX 6 6 1 0
BITMAP
A4
A4
A4
A4
BC
FC
ENDCHAR
STARTCHAR X
ENCODING 88
SWIDTH 1000 0
DWIDTH 8 0
BBX 6 6 1 0
BITMAP
84
48
20
00
48
84
ENDCHAR
STARTCHAR Y
ENCODING 89
SWIDTH 1000 0
DWIDTH 8 0
BBX 6 6 1 0
BITMAP
84
48
20
20
20
20
ENDCHAR
STARTCHAR Z
ENCODING 90
SWIDTH 1000 0
DWIDTH 8 0
BBX 5 6 1 0
BITMAP
F8
18
00
00
60
F8
ENDCHAR
STARTCHAR periodcentered
ENCODING 183
SWIDTH 1000 0
DWIDTH 8 0
BBX 1 1 4 1
BITMAP
80
ENDCHAR
ENDFONT
