STARTFONT 2.1
FONT -FontForge-Untitled1-Regular-R-Normal--7-70-75-75-P-65-ISO8859-1
SIZE 7 75 75
FONTBOUNDINGBOX 9 9 -1 -6
COMMENT "Generated by fontforge, http://fontforge.sourceforge.net"
COMMENT "Copyright (c) 2025, Taylor Faragher"
STARTPROPERTIES 28
FOUNDRY "FontForge"
FAMILY_NAME "Untitled1"
WEIGHT_NAME "Regular"
SLANT "R"
SETWIDTH_NAME "Normal"
ADD_STYLE_NAME ""
PIXEL_SIZE 7
POINT_SIZE 70
RESOLUTION_X 75
RESOLUTION_Y 75
SPACING "P"
AVERAGE_WIDTH 65
CHARSET_REGISTRY "ISO8859"
CHARSET_ENCODING "1"
FONTNAME_REGISTRY ""
CHARSET_COLLECTIONS "ISOLatin1Encoding"
FONT_NAME "Untitled1"
FACE_NAME "Untitled1"
COPYRIGHT "Copyright (c) 2025, Taylor Faragher"
FONT_VERSION "001.000"
FONT_ASCENT 2
FONT_DESCENT 5
UNDERLINE_POSITION 0
UNDERLINE_THICKNESS 0
CAP_HEIGHT 2
RAW_ASCENT 833
RAW_DESCENT 166
AVG_UPPERCASE_WIDTH 72
ENDPROPERTIES
CHARS 44
STARTCHAR exclam
ENCODING 33
SWIDTH 333 0
DWIDTH 3 0
BBX 1 7 0 -4
BITMAP
80
80
80
80
00
00
80
ENDCHAR
STARTCHAR percent
ENCODING 37
SWIDTH 1000 0
DWIDTH 8 0
BBX 7 7 0 -4
BITMAP
82
04
08
10
20
40
82
ENDCHAR
STARTCHAR hyphen
ENCODING 45
SWIDTH 500 0
DWIDTH 4 0
BBX 3 1 0 0
BITMAP
E0
ENDCHAR
STARTCHAR period
ENCODING 46
SWIDTH 333 0
DWIDTH 3 0
BBX 1 1 0 -3
BITMAP
80
ENDCHAR
STARTCHAR zero
ENCODING 48
SWIDTH 1000 0
DWIDTH 8 0
BBX 6 7 0 -4
BITMAP
70
88
8C
8C
8C
88
70
ENDCHAR
STARTCHAR one
ENCODING 49
SWIDTH 666 0
DWIDTH 5 0
BBX 4 7 0 -4
BITMAP
60
E0
E0
60
60
60
F0
ENDCHAR
STARTCHAR two
ENCODING 50
SWIDTH 1000 0
DWIDTH 8 0
BBX 6 7 0 -4
BITMAP
70
88
88
10
20
60
FC
ENDCHAR
STARTCHAR three
ENCODING 51
SWIDTH 666 0
DWIDTH 5 0
BBX 4 7 0 -4
BITMAP
F0
30
10
F0
10
30
F0
ENDCHAR
STARTCHAR four
ENCODING 52
SWIDTH 1000 0
DWIDTH 8 0
BBX 6 7 0 -4
BITMAP
8C
8C
CC
FC
0C
0C
0C
ENDCHAR
STARTCHAR five
ENCODING 53
SWIDTH 666 0
DWIDTH 5 0
BBX 4 7 0 -4
BITMAP
F0
C0
C0
F0
10
30
F0
ENDCHAR
STARTCHAR six
ENCODING 54
SWIDTH 666 0
DWIDTH 5 0
BBX 4 7 0 -4
BITMAP
F0
C0
C0
F0
D0
F0
F0
ENDCHAR
STARTCHAR seven
ENCODING 55
SWIDTH 1000 0
DWIDTH 8 0
BBX 6 7 0 -4
BITMAP
FC
0C
08
10
20
40
80
ENDCHAR
STARTCHAR eight
ENCODING 56
SWIDTH 666 0
DWIDTH 5 0
BBX 4 7 0 -4
BITMAP
F0
F0
D0
F0
D0
F0
F0
ENDCHAR
STARTCHAR nine
ENCODING 57
SWIDTH 666 0
DWIDTH 5 0
BBX 4 7 0 -4
BITMAP
F0
F0
D0
F0
10
10
10
ENDCHAR
STARTCHAR colon
ENCODING 58
SWIDTH 333 0
DWIDTH 3 0
BBX 1 4 0 -2
BITMAP
80
00
00
80
ENDCHAR
STARTCHAR semicolon
ENCODING 59
SWIDTH 500 0
DWIDTH 4 0
BBX 3 7 -1 -6
BITMAP
60
00
00
60
60
40
80
ENDCHAR
STARTCHAR A
ENCODING 65
SWIDTH 1000 0
DWIDTH 8 0
BBX 6 7 0 -4
BITMAP
FC
CC
CC
FC
CC
8C
8C
ENDCHAR
STARTCHAR B
ENCODING 66
SWIDTH 1000 0
DWIDTH 8 0
BBX 6 7 0 -4
BITMAP
FC
CC
C8
F0
C8
CC
FC
ENDCHAR
STARTCHAR C
ENCODING 67
SWIDTH 666 0
DWIDTH 5 0
BBX 4 7 0 -4
BITMAP
F0
C0
80
80
80
C0
F0
ENDCHAR
STARTCHAR D
ENCODING 68
SWIDTH 1000 0
DWIDTH 8 0
BBX 6 7 0 -4
BITMAP
F0
C8
8C
8C
8C
C8
F0
ENDCHAR
STARTCHAR E
ENCODING 69
SWIDTH 666 0
DWIDTH 5 0
BBX 4 7 0 -4
BITMAP
F0
C0
C0
F0
C0
C0
F0
ENDCHAR
STARTCHAR F
ENCODING 70
SWIDTH 666 0
DWIDTH 5 0
BBX 4 7 0 -4
BITMAP
F0
C0
C0
F0
C0
80
80
ENDCHAR
STARTCHAR G
ENCODING 71
SWIDTH 1000 0
DWIDTH 8 0
BBX 6 7 0 -4
BITMAP
7C
80
80
9C
8C
CC
FC
ENDCHAR
STARTCHAR H
ENCODING 72
SWIDTH 1000 0
DWIDTH 8 0
BBX 6 7 0 -4
BITMAP
8C
8C
CC
FC
CC
8C
8C
ENDCHAR
STARTCHAR I
ENCODING 73
SWIDTH 666 0
DWIDTH 5 0
BBX 4 7 0 -4
BITMAP
F0
60
60
60
60
60
F0
ENDCHAR
STARTCHAR J
ENCODING 74
SWIDTH 666 0
DWIDTH 5 0
BBX 4 7 0 -4
BITMAP
10
10
10
10
90
F0
F0
ENDCHAR
STARTCHAR K
ENCODING 75
SWIDTH 666 0
DWIDTH 5 0
BBX 4 7 0 -4
BITMAP
90
90
D0
E0
D0
90
90
ENDCHAR
STARTCHAR L
ENCODING 76
SWIDTH 666 0
DWIDTH 5 0
BBX 4 7 0 -4
BITMAP
80
80
80
80
80
C0
F0
ENDCHAR
STARTCHAR M
ENCODING 77
SWIDTH 1166 0
DWIDTH 9 0
BBX 7 7 0 -4
BITMAP
82
C6
EE
92
82
82
82
ENDCHAR
STARTCHAR N
ENCODING 78
SWIDTH 1166 0
DWIDTH 9 0
BBX 7 7 0 -4
BITMAP
82
C2
E2
92
8E
86
82
ENDCHAR
STARTCHAR O
ENCODING 79
SWIDTH 1000 0
DWIDTH 8 0
BBX 6 7 0 -4
BITMAP
FC
CC
8C
8C
8C
CC
FC
ENDCHAR
STARTCHAR P
ENCODING 80
SWIDTH 666 0
DWIDTH 5 0
BBX 4 7 0 -4
BITMAP
F0
F0
D0
F0
C0
80
80
ENDCHAR
STARTCHAR Q
ENCODING 81
SWIDTH 1000 0
DWIDTH 8 0
BBX 6 7 0 -4
BITMAP
FC
CC
8C
8C
90
D0
EC
ENDCHAR
STARTCHAR R
ENCODING 82
SWIDTH 1000 0
DWIDTH 8 0
BBX 6 7 0 -4
BITMAP
FC
CC
CC
FC
D0
90
8C
ENDCHAR
STARTCHAR S
ENCODING 83
SWIDTH 666 0
DWIDTH 5 0
BBX 4 7 0 -4
BITMAP
F0
C0
C0
F0
10
30
F0
ENDCHAR
STARTCHAR T
ENCODING 84
SWIDTH 1166 0
DWIDTH 9 0
BBX 7 7 0 -4
BITMAP
FE
38
10
10
10
10
10
ENDCHAR
STARTCHAR U
ENCODING 85
SWIDTH 1000 0
DWIDTH 8 0
BBX 6 7 0 -4
BITMAP
8C
8C
8C
8C
8C
CC
FC
ENDCHAR
STARTCHAR V
ENCODING 86
SWIDTH 1166 0
DWIDTH 9 0
BBX 7 7 0 -4
BITMAP
82
82
82
82
6C
28
10
ENDCHAR
STARTCHAR W
ENCODING 87
SWIDTH 1166 0
DWIDTH 9 0
BBX 7 7 0 -4
BITMAP
92
92
92
92
92
FE
FE
ENDCHAR
STARTCHAR X
ENCODING 88
SWIDTH 1166 0
DWIDTH 9 0
BBX 7 7 0 -4
BITMAP
82
44
28
10
28
44
82
ENDCHAR
STARTCHAR Y
ENCODING 89
SWIDTH 1166 0
DWIDTH 9 0
BBX 7 7 0 -4
BITMAP
82
44
28
10
10
10
10
ENDCHAR
STARTCHAR Z
ENCODING 90
SWIDTH 1166 0
DWIDTH 9 0
BBX 7 7 0 -4
BITMAP
FE
0C
08
10
20
60
FE
ENDCHAR
STARTCHAR bar
ENCODING 124
SWIDTH 500 0
DWIDTH 4 0
BBX 1 7 1 -4
BITMAP
80
80
80
80
80
80
80
ENDCHAR
STARTCHAR periodcentered
ENCODING 183
SWIDTH 1000 0
DWIDTH 8 0
BBX 1 1 7 -3
BITMAP
00
ENDCHAR
ENDFONT
